<svg width="960" height="480" viewBox="0 0 960 480" xmlns="http://www.w3.org/2000/svg" style="background-color: #ffffff;">
    <style>
        .pkg-node {
            font-family: Arial, sans-serif;
            font-size: 16px;
            fill: #333;
        }
        .pkg-box-internal {
            fill: #f0f0f0;
            stroke: #333;
            stroke-width: 2;
        }
        .pkg-box-external {
            fill: #ffcccb;
            stroke: #c00;
            stroke-width: 2;
        }
        .arrow-line {
            stroke: #333;
            stroke-width: 2;
            fill: none;
        }
        .arrow-head {
            fill: #333;
        }
        .layer-label {
            font-family: Arial, sans-serif;
            font-size: 14px;
            font-style: italic;
            fill: #666;
        }
        .title-label {
            font-family: Arial, sans-serif;
            font-size: 20px;
            font-weight: bold;
            fill: #000;
        }
    </style>

    <text x="480" y="40" text-anchor="middle" class="title-label">Ordem de Inicialização de Pacotes em Go (Ordenação Topológica)</text>

    <text x="130" y="70" text-anchor="middle" class="layer-label">Camada 0: Dependências Base</text>
    <text x="130" y="88" text-anchor="middle" class="layer-label">(Inicializam Primeiro)</text>
    
    <rect x="60" y="150" width="140" height="50" rx="8" ry="8" class="pkg-box-internal"/>
    <text x="130" y="180" text-anchor="middle" class="pkg-node">utils</text>
    
    <rect x="60" y="250" width="140" height="50" rx="8" ry="8" class="pkg-box-external"/>
    <text x="130" y="280" text-anchor="middle" class="pkg-node">log/slog</text>

    <text x="380" y="110" text-anchor="middle" class="layer-label">Camada 1</text>
    <rect x="310" y="150" width="140" height="50" rx="8" ry="8" class="pkg-box-internal"/>
    <text x="380" y="180" text-anchor="middle" class="pkg-node">database</text>

    <text x="630" y="110" text-anchor="middle" class="layer-label">Camada 2</text>
    <rect x="560" y="150" width="140" height="50" rx="8" ry="8" class="pkg-box-internal"/>
    <text x="630" y="180" text-anchor="middle" class="pkg-node">api</text>

    <text x="880" y="160" text-anchor="middle" class="layer-label">Camada 3: Aplicação</text>
    <text x="880" y="178" text-anchor="middle" class="layer-label">(Inicializa por Último)</text>
    <rect x="810" y="200" width="140" height="50" rx="8" ry="8" class="pkg-box-internal"/>
    <text x="880" y="230" text-anchor="middle" class="pkg-node">main</text>

    <defs>
        <marker id="arrow" viewBox="0 0 10 10" refX="5" refY="5" markerWidth="6" markerHeight="6" orient="auto-start-reverse">
            <path d="M 0 0 L 10 5 L 0 10 z" class="arrow-head"/>
        </marker>
    </defs>

    <path d="M 200 175 C 250 175, 260 175, 310 175" class="arrow-line" marker-end="url(#arrow)"/>
    <path d="M 450 175 C 500 175, 510 175, 560 175" class="arrow-line" marker-end="url(#arrow)"/>
    <path d="M 700 175 C 750 175, 780 200, 810 215" class="arrow-line" marker-end="url(#arrow)"/>
    <path d="M 200 275 C 450 275, 780 250, 810 235" class="arrow-line" marker-end="url(#arrow)"/>

</svg>
